<svg xmlns="http://www.w3.org/2000/svg" width="30" height="30" fill="none"><rect width="30" height="30" fill="#E9493B" rx="15"/><path fill="#FFEDE5" d="M14.645 13.93q.199 1.158.243 2.533.045 1.375.088 2.533 0 .064-.022.24 0 .174-.088.196-.044 0-.11-.174l-.089-.262a8 8 0 0 1-.176-.612l-.132-.698q-.066-.372-.11-.72-.045-.372-.067-.678 0-.066-.044-.371a8 8 0 0 0-.088-.699 28 28 0 0 0-.154-.873q-.089-.48-.199-.917 0 .917-.044 1.812-.022.873.044 1.769.045.568.132 1.113.089.524.199 1.07.154.765.463 1.529.308.764.728 1.44.441.678.992 1.245.573.546 1.235.874.11.043.088.109 0 .044-.088.021a3.95 3.95 0 0 1-1.588-.72 6.4 6.4 0 0 1-1.213-1.288 7.7 7.7 0 0 1-.838-1.616q-.33-.873-.507-1.747l-.132-.742q-.066-.372-.11-.742-.33 1.047-.728 2.052-.375 1.005-.728 1.921a28 28 0 0 0-.617 1.769 13 13 0 0 0-.397 1.616q-.022.022-.022.043l-.044.044q-.067 0-.067-.087a5.7 5.7 0 0 1 .067-2.053q.241-1.069.64-2.183.417-1.114.881-2.27.463-1.18.772-2.38.198-.744.287-1.573.088-.851.044-1.66a6.4 6.4 0 0 0-.287-1.593 5 5 0 0 0-.64-1.398q-.11-.13-.066-.174.045-.045.133 0 .088.043.154.109.44.437.772.851.353.393.617.874.265.48.463 1.07.199.59.353 1.397m2.669 5.087q.132-.633.242-1.113.111-.48.243-.917.155-.437.33-.873.2-.458.486-1.005.044-.065.132-.218.11-.175.176-.153.044 0 .023.197a1.5 1.5 0 0 1-.045.261q-.066.284-.176.656-.088.37-.199.786l-.22.786q-.11.393-.176.676-.089.372-.199.917l-.198 1.18q-.089.654-.155 1.397a18 18 0 0 0-.022 1.528 5 5 0 0 1-.419-.262 2.3 2.3 0 0 1-.397-.48 6 6 0 0 1-.727-1.376 13 13 0 0 1-.397-1.528 14 14 0 0 1-.22-1.594 51 51 0 0 0-.155-1.616 90 90 0 0 1-.199-2.074 9.2 9.2 0 0 0-.463-2.161q-.044-.11-.066-.11 0-.021.044-.043.066 0 .132.109.287.284.486.83.22.524.374 1.179.177.654.287 1.397.133.72.22 1.42.089.676.155 1.266.088.567.154.938.155-1.266.331-2.248.177-1.005.375-1.616.177-.546.419-1.136t.53-1.157q.285-.59.573-1.113.309-.524.573-.917.066-.11.132-.197t.11-.043q.045.044 0 .152a2 2 0 0 1-.066.197 34 34 0 0 1-.55 1.528q-.244.677-.508 1.332a25 25 0 0 0-.463 1.376q-.22.698-.441 1.572-.132.568-.309 1.2-.177.635-.287 1.31-.087.656-.066 1.354.045.678.331 1.332a8 8 0 0 1 0-.83q.023-.48.066-.895.066-.436.11-.764zm-.441 4.018q.241.263.507.48.264.197.573.372a7.2 7.2 0 0 1-.066-2.031 16 16 0 0 1 .375-2.162 30 30 0 0 1 .617-2.183q.352-1.092.684-2.14.484-1.528.772-3.166a21 21 0 0 0 .353-3.297q0-.174.022-.174.066 0 .066.109.199.939.22 1.834.023.873-.088 1.747a17 17 0 0 1-.309 1.703 27 27 0 0 1-.463 1.724q-.33 1.18-.683 2.38a51 51 0 0 0-.64 2.337 21 21 0 0 0-.397 2.249 10 10 0 0 0-.044 2.074q0 .087-.044.087t-.066-.044q0-.022-.022-.043a1.4 1.4 0 0 0-.11-.24q0-.023-.067-.24-.044-.175-.132-.24a1 1 0 0 0-.132-.088q-.375-.13-.64-.24-.264-.11-.705-.546a3 3 0 0 1-.375-.48q-.199-.306-.353-.59a3.4 3.4 0 0 1-.22-.524q-.068-.24 0-.262.02 0 .11.087a1 1 0 0 1 .176.175q.088.087.154.197.09.108.11.13.397.59.817 1.005m-6.462-7.27q.265-1.005.618-2.053.375-1.048.617-1.878.045-.11.066-.196.045-.088.089-.066.044 0 .044.11v.218a11.3 11.3 0 0 1-.42 3.187 46 46 0 0 1-.992 3.144q-.352.983-.705 2.01-.354 1.004-.53 2.183a1 1 0 0 0-.022.13h-.044q-.021 0-.066-.152-.132-.59 0-1.485.154-.895.397-1.856.242-.982.53-1.856.285-.896.418-1.44m-.419 4.65q.398-1.113.882-2.315.508-1.222 1.015-2.314.021-.045.11-.197t.132-.152q.044.021.044.196.023.176-.022.24-.043.262-.132.655-.066.372-.176.786-.11.393-.22.765-.11.37-.2.633-.065.196-.308.96-.22.765-.463 1.703a53 53 0 0 0-.441 1.79q-.177.874-.132 1.29 0 .195-.067.196-.021 0-.066-.066a.3.3 0 0 0-.066-.13 3 3 0 0 1-.242-.896 9 9 0 0 1-.023-1.092q.045-.567.133-1.091.11-.547.242-.961m9.836-10.11a10 10 0 0 0 .132-.829q.045-.415.088-.873 0-.045.022-.088.023-.065.066-.065.022 0 .088.109.023.044.023.087.066.219.088.393.045.175.044.371.023.197 0 .459 0 .24-.066.568-.044.261-.155.633-.088.37-.198.72a6 6 0 0 1-.22.568q-.089.219-.155.197-.044 0-.044-.11 0-.13.022-.262l.044-.305a2 2 0 0 0 .022-.24zm-7.74.918a6 6 0 0 0-.221-.72 2.7 2.7 0 0 0-.309-.656q-.088-.13-.044-.153a.3.3 0 0 1 .132.044l.088.044q.287.261.486.524.22.262.352.873.067.24.089.611a6 6 0 0 1 0 .7q0 .348-.044.589-.045.24-.133.218-.044 0-.066-.11a8 8 0 0 1-.088-.523 1 1 0 0 1-.022-.175q-.045-.35-.088-.655a5 5 0 0 0-.133-.611m2.756-3.93q-.044-.066.176-.153t.42-.11q.241-.021.55.153.31.153.662.372.353.196.728.37.396.175.772.175.396 0 .661-.087.287-.109.463-.218.176-.132.287-.24.132-.11.198-.11v.066q.023.021.023.044a.78.78 0 0 1-.199.502 1.8 1.8 0 0 1-.463.393 2.6 2.6 0 0 1-.573.284 2 2 0 0 1-.53.087q-.617 0-1.213-.284a5 5 0 0 1-1.036-.699 1.5 1.5 0 0 0-.375-.262.9.9 0 0 0-.287-.109 2 2 0 0 1-.176-.043q-.067-.023-.088-.131m-1.544.152q0-.48.177-.917.176-.457.485-.786A2.154 2.154 0 0 1 15.616 5q.66 0 1.168.197.507.196.86.436.375.219.618.415.243.197.375.197.22 0 .375-.022.154-.045.397-.175a.24.24 0 0 1 .132-.044q.066 0 .022.088-.286.415-.507.567-.22.131-.596.131-.154 0-.463-.174a68 68 0 0 0-.705-.393 5.6 5.6 0 0 0-.838-.393 2.4 2.4 0 0 0-.883-.175q-.55 0-.904.262-.352.24-.595.568-.242.328-.419.633-.154.306-.33.437-.024-.022-.023-.11m5.623-.087q0-.087.11-.284.133-.195.287-.37.177-.197.331-.35t.265-.175q.088 0 .088.11 0 .152-.088.37-.088.196-.243.372a2 2 0 0 1-.33.305.57.57 0 0 1-.331.131q-.09 0-.089-.109m-3.351-1.42q.241 0 .507.11.286.087.529.24.264.153.463.371.198.22.309.437-.022.087-.155.087-.242 0-.463-.065l-.44-.175a4 4 0 0 0-.42-.153 1 1 0 0 0-.419-.087.8.8 0 0 0-.463.131 6 6 0 0 0-.397.24 8 8 0 0 1-.375.262.9.9 0 0 1-.44.11v-.132q.308-.524.683-.938.375-.437 1.08-.437"/></svg>