<svg xmlns="http://www.w3.org/2000/svg" width="50" height="83" fill="none"><path fill="#fff" d="M23.99 36.81q.81 4.77.99 10.44t.36 10.44q0 .27-.09.99 0 .72-.36.81-.18 0-.45-.72l-.36-1.08q-.36-1.08-.72-2.52l-.54-2.88q-.27-1.53-.45-2.97a62 62 0 0 1-.27-2.79q0-.27-.18-1.53-.09-1.26-.36-2.88-.27-1.71-.63-3.6-.36-1.98-.81-3.78 0 3.78-.18 7.47-.09 3.6.18 7.29.18 2.34.54 4.59.36 2.16.81 4.41.63 3.15 1.89 6.3t2.97 5.94q1.8 2.79 4.05 5.13 2.34 2.25 5.04 3.6.45.18.36.45 0 .18-.36.09-3.69-.81-6.48-2.97a26.1 26.1 0 0 1-4.95-5.31 31.7 31.7 0 0 1-3.42-6.66q-1.35-3.6-2.07-7.2l-.54-3.06q-.27-1.53-.45-3.06-1.35 4.32-2.97 8.46-1.53 4.14-2.97 7.92t-2.52 7.29-1.62 6.66q-.09.09-.09.18l-.18.18q-.27 0-.27-.36-.63-4.14.27-8.46.99-4.41 2.61-9 1.71-4.59 3.6-9.36 1.89-4.86 3.15-9.81.81-3.06 1.17-6.48.36-3.51.18-6.84-.18-3.42-1.17-6.57-.9-3.15-2.61-5.76-.45-.54-.27-.72t.54 0 .63.45q1.8 1.8 3.15 3.51 1.44 1.62 2.52 3.6t1.89 4.41 1.44 5.76m10.89 20.97q.54-2.61.99-4.59t.99-3.78q.63-1.8 1.35-3.6.81-1.89 1.98-4.14.18-.27.54-.9.45-.72.72-.63.18 0 .09.81t-.18 1.08q-.27 1.17-.72 2.7-.36 1.53-.81 3.24l-.9 3.24q-.45 1.62-.72 2.79-.36 1.53-.81 3.78l-.81 4.86q-.36 2.7-.63 5.76-.18 3.06-.09 6.3-.81-.45-1.71-1.08-.81-.72-1.62-1.98-1.89-2.7-2.97-5.67-.99-3.06-1.62-6.3a60 60 0 0 1-.9-6.57q-.27-3.42-.63-6.66-.45-4.23-.81-8.55t-1.89-8.91q-.18-.45-.27-.45 0-.09.18-.18.27 0 .54.45 1.17 1.17 1.98 3.42.9 2.16 1.53 4.86.72 2.7 1.17 5.76.54 2.97.9 5.85.36 2.79.63 5.22.36 2.34.63 3.87.63-5.22 1.35-9.27.72-4.14 1.53-6.66.72-2.25 1.71-4.68t2.16-4.77q1.17-2.43 2.34-4.59 1.26-2.16 2.34-3.78.27-.45.54-.81t.45-.18 0 .63q-.09.36-.27.81-1.17 3.51-2.25 6.3-.99 2.79-2.07 5.49-.99 2.7-1.89 5.67-.9 2.88-1.8 6.48-.54 2.34-1.26 4.95t-1.17 5.4q-.36 2.7-.27 5.58.18 2.79 1.35 5.49-.09-1.53 0-3.42.09-1.98.27-3.69.27-1.8.45-3.15zm-1.8 16.56q.99 1.08 2.07 1.98 1.08.81 2.34 1.53-.72-4.05-.27-8.37.45-4.41 1.53-8.91t2.52-9 2.79-8.82q1.98-6.3 3.15-13.05a88 88 0 0 0 1.44-13.59q0-.72.09-.72.27 0 .27.45.81 3.87.9 7.56.09 3.6-.36 7.2-.45 3.51-1.26 7.02t-1.89 7.11q-1.35 4.86-2.79 9.81-1.44 4.86-2.61 9.63-1.08 4.68-1.62 9.27-.54 4.5-.18 8.55 0 .36-.18.36t-.27-.18q0-.09-.09-.18-.36-.9-.45-.99 0-.09-.27-.99-.18-.72-.54-.99t-.54-.36q-1.53-.54-2.61-.99t-2.88-2.25q-.72-.72-1.53-1.98a37 37 0 0 1-1.44-2.43q-.63-1.26-.9-2.16-.27-.99 0-1.08.09 0 .45.36.36.27.72.72.36.36.63.81.36.45.45.54 1.62 2.43 3.33 4.14M6.71 44.37q1.08-4.14 2.52-8.46 1.53-4.32 2.52-7.74.18-.45.27-.81.18-.36.36-.27.18 0 .18.45v.9q.09 6.57-1.71 13.14T6.8 54.54q-1.44 4.05-2.88 8.28-1.44 4.14-2.16 9-.09.45-.09.54h-.18q-.09 0-.27-.63-.54-2.43 0-6.12.63-3.69 1.62-7.65.99-4.05 2.16-7.65 1.17-3.69 1.71-5.94M5 63.54Q6.62 58.95 8.6 54q2.07-5.04 4.14-9.54.09-.18.45-.81t.54-.63q.18.09.18.81.09.72-.09.99-.18 1.08-.54 2.7-.27 1.53-.72 3.24-.45 1.62-.9 3.15t-.81 2.61q-.27.81-1.26 3.96-.9 3.15-1.89 7.02-.99 3.78-1.8 7.38-.72 3.6-.54 5.31 0 .81-.27.81-.09 0-.27-.27-.09-.36-.27-.54-.72-1.53-.99-3.69a37 37 0 0 1-.09-4.5q.18-2.34.54-4.5.45-2.25.99-3.96m40.14-41.67q.36-1.8.54-3.42.18-1.71.36-3.6 0-.18.09-.36.09-.27.27-.27.09 0 .36.45.09.18.09.36.27.9.36 1.62.18.72.18 1.53.09.81 0 1.89 0 .99-.27 2.34-.18 1.08-.63 2.61-.36 1.53-.81 2.97-.45 1.35-.9 2.34-.36.9-.63.81-.18 0-.18-.45 0-.54.09-1.08l.18-1.26q.09-.63.09-.99zm-31.59 3.78a24 24 0 0 0-.9-2.97q-.45-1.44-1.26-2.7-.36-.54-.18-.63.18 0 .54.18l.36.18q1.17 1.08 1.98 2.16.9 1.08 1.44 3.6.27.99.36 2.52.09 1.44 0 2.88 0 1.44-.18 2.43t-.54.9q-.18 0-.27-.45t-.18-.99q-.09-.63-.18-1.17t-.09-.72q-.18-1.44-.36-2.7t-.54-2.52M24.8 9.45q-.18-.27.72-.63t1.71-.45q.99-.09 2.25.63 1.26.63 2.7 1.53 1.44.81 2.97 1.53 1.62.72 3.15.72 1.62 0 2.7-.36 1.17-.45 1.89-.9.72-.54 1.17-.99.54-.45.81-.45v.27q.09.09.09.18 0 1.08-.81 2.07-.72.9-1.89 1.62-1.08.72-2.34 1.17-1.26.36-2.16.36-2.52 0-4.95-1.17-2.43-1.26-4.23-2.88-.9-.81-1.53-1.08-.63-.36-1.17-.45-.45-.09-.72-.18t-.36-.54m-6.3.63q0-1.98.72-3.78.72-1.89 1.98-3.24 1.26-1.44 2.97-2.25T27.95 0q2.7 0 4.77.81t3.51 1.8q1.53.9 2.52 1.71t1.53.81q.9 0 1.53-.09.63-.18 1.62-.72.27-.18.54-.18t.09.36q-1.17 1.71-2.07 2.34-.9.54-2.43.54-.63 0-1.89-.72t-2.88-1.62q-1.53-.9-3.42-1.62-1.8-.72-3.6-.72-2.25 0-3.69 1.08-1.44.99-2.43 2.34t-1.71 2.61q-.63 1.26-1.35 1.8-.09-.09-.09-.45m22.95-.36q0-.36.45-1.17.54-.81 1.17-1.53.72-.81 1.35-1.44t1.08-.72q.36 0 .36.45 0 .63-.36 1.53-.36.81-.99 1.53t-1.35 1.26-1.35.54q-.36 0-.36-.45M27.77 3.87q.99 0 2.07.45 1.17.36 2.16.99 1.08.63 1.89 1.53t1.26 1.8q-.09.36-.63.36-.99 0-1.89-.27l-1.8-.72q-.81-.36-1.71-.63-.81-.36-1.71-.36-1.08 0-1.89.54-.81.45-1.62.99-.72.54-1.53 1.08-.81.45-1.8.45v-.54q1.26-2.16 2.79-3.87 1.53-1.8 4.41-1.8"/></svg>